<?xml version="1.0" encoding="utf-8" ?>
<svg xmlns="http://www.w3.org/2000/svg" xmlns:xlink="http://www.w3.org/1999/xlink" width="1024" height="1024">
	<path fill="#010000" d="M262.238 379.195C273.342 377.107 295.935 380.332 306.005 385.93C322.775 395.253 330.724 415.834 335.724 433.285C340.837 451.132 346.764 478.435 336.841 495.527C332.359 503.247 322.442 506.222 314.372 508.468C328.42 516.586 343.231 522.252 356.277 532.229C363.946 530.99 398.291 523.546 403.304 525.877C404.764 529.167 399.357 551.953 398.165 556.569C401.578 559.494 403.978 563.129 406.078 567.066C413.064 580.162 418.898 597.351 414.265 612.159C412.101 619.077 407.56 626.081 400.917 629.349C394.742 632.387 389.317 631.607 383.095 629.518C378.203 631.086 373.265 632.748 368.179 633.541C369.581 637.815 369.7 642.035 369.854 646.484C380.834 647.766 392.815 649.902 400.137 659.055C404.068 663.968 404.737 672.359 405.131 678.42C406.115 693.57 404.365 708.854 403.718 723.995Q401.233 782.134 395.582 840.052L391.727 842.689C391.318 846.77 390.75 850.873 390.929 854.982C391.026 857.207 391.291 859.783 392.382 861.761C396.677 869.549 413.842 874.923 421.158 881.867C422.838 883.46 424.112 884.813 424.164 887.248C423.711 888.39 423.313 889.057 422.226 889.706C412.844 895.309 375.272 886.583 364.736 883.838C365.238 885.364 366.128 887.452 365.796 889.046C365.574 890.109 364.895 891.001 364.007 891.598C359.377 894.71 348.541 891.755 343.45 890.646C332.899 888.628 308.41 881.879 300.633 874.137C299.607 873.116 298.714 871.89 298.361 870.467C297.38 866.52 299.097 850.595 298.991 844.293L295.473 840.675C295.897 833.216 295.576 825.595 295.667 818.11Q296.02 789.21 295.979 760.308C268.064 761.018 239.834 760.847 212.158 756.786C193.901 754.108 162.092 746.787 150.81 731.406C131.312 704.824 133.463 602.931 138.625 569.507C139.986 560.69 142.626 550.378 150.384 544.984C154.498 542.123 159.218 541.582 164.04 542.621C176.724 545.352 184.718 555.205 191.443 565.532C198.22 543.358 208.799 528.318 225.973 513.29C214.465 511.777 203.776 508.593 194.703 501.064C187.253 494.883 181.742 485.502 181.067 475.738C180.73 470.862 181.788 465.977 185.127 462.267C189.8 457.073 196.704 456.675 203.202 456.42C203.401 435.841 209.939 413.607 223.157 397.505C233.666 384.703 246.268 380.731 262.238 379.195ZM292.971 704.789C277.631 695.841 256.372 692.515 238.707 693.868C231.732 694.403 224.874 696.444 217.935 694.326C210.031 691.913 205.721 684.699 203.704 677.136C202.011 670.787 201.384 663.855 201.411 657.299C190.774 649.713 184.969 641.595 182.726 628.567C179.325 608.815 183.968 589.556 189.543 570.713C183.584 560.701 176.005 549.578 163.946 546.682C162.104 546.239 160.348 546.006 158.458 546.105C153.866 547.075 150.808 548.946 148.22 552.956C136.704 570.803 138.741 651.273 140.841 675.516Q142.386 692.179 146.025 708.512C149.148 721.977 152.545 730.154 164.623 737.682C196.233 757.385 250.247 756.341 286.375 756.485C289.553 756.453 292.76 756.507 295.933 756.347C296.249 739.734 297.561 720.983 292.971 704.789ZM262.444 414.941C262.072 419.276 261.583 423.423 259.963 427.501C257.575 433.511 252.962 438.689 246.972 441.211C243.749 438.93 240.254 435.811 236.091 435.886C233.19 435.938 230.546 437.396 228.634 439.526Q228.2 440 227.818 440.517Q227.436 441.033 227.11 441.587Q226.785 442.141 226.518 442.726Q226.252 443.31 226.048 443.92Q225.845 444.529 225.706 445.156Q225.567 445.784 225.494 446.422Q225.421 447.06 225.416 447.703Q225.41 448.345 225.472 448.985C225.816 452.495 227.697 455.71 230.443 457.889C235.21 461.672 240.329 461.309 245.987 460.657C252.286 467.396 264.235 486.326 265.538 495.347C275.197 495.548 285.29 495.014 294.884 495.952C295.233 494.638 295.546 493.148 296.403 492.06C301.292 485.847 312.108 486.066 318.963 474.025C326.504 460.78 321.267 432.197 317.613 418.011C312.476 419.118 307.28 420.479 302.027 419.208C294.33 417.346 290.797 410.92 287.131 404.61C286.483 406.81 285.827 409.081 284.702 411.093C283.012 414.116 280.2 416.441 276.847 417.344C272.011 418.648 266.718 417.319 262.444 414.941ZM337.382 843.423L333.47 847.097C333.456 853.415 332.626 860.09 337.322 865.083C339.022 866.891 341.348 868.148 343.455 869.425C346.484 871.033 349.44 872.648 352.685 873.786C354.331 865.147 356.069 854.906 355.669 846.087C355.491 842.155 354.489 838.324 354.443 834.36L354.028 794.747C353.857 782.782 354.878 770.12 353.75 758.246C352.227 757.895 350.955 757.944 349.401 758.054C346.978 770.072 346.139 782.605 344.301 794.751C341.929 810.427 338.044 827.71 337.382 843.423ZM362.419 887.593C363.397 886.556 363.763 886.437 363.891 885.04C360.143 878.052 335.318 875.671 330.829 861.367C329.428 856.9 329.849 851.664 329.86 847.015C320.431 847.28 311.654 846.882 302.318 845.337C302.171 852.837 302.623 860.5 301.038 867.872C317.416 877.518 343.216 886.494 362.419 887.593ZM356.239 872.822C366.498 878.001 378.62 881.738 390.117 882.648C399.25 883.924 410.077 885.864 419.197 884.461C416.163 882.248 413.125 880.066 409.833 878.25C400.3 872.992 389.497 869.458 387.766 857.002C387.135 852.468 387.624 847.482 388.283 842.972L388.015 842.734C378.201 844.325 368.909 845.045 358.941 844.64C359.221 854.065 357.882 863.568 356.239 872.822ZM352.726 752.659C353.065 752.244 353.513 751.898 353.742 751.414C354.913 748.938 358.675 709.859 358.89 705.078Q359.227 697.606 358.529 690.159C358.246 687.347 358.032 684.012 356.375 681.653L354.887 680.754C354.576 681.328 354.283 681.829 354.231 682.497C354.04 684.954 354.696 687.954 354.904 690.439C355.297 695.136 355.467 699.746 355.293 704.461C354.703 720.518 351.395 736.143 350.154 752.086C351.159 752.619 351.616 752.607 352.726 752.659Z"/>
	<path fill="#FCF9FE" d="M265.538 495.347C275.197 495.548 285.29 495.014 294.884 495.952C299.985 508.253 322.632 516.843 333.989 523.025C339.953 526.272 345.663 529.925 351.37 533.596C337.958 536.111 324.392 539.102 310.927 541.176C308.754 549.207 308.029 557.844 306.856 566.084C305.133 578.194 303.253 590.309 301.881 602.464C300.884 601.483 299.794 600.485 298.57 599.789C289.323 594.529 272.49 600.742 263.109 603.199L262.442 602.36C259.973 599.27 256.967 594.866 252.756 594.396C251.497 594.866 251.526 594.78 250.942 595.98C251.667 598.818 256.073 601.024 257.783 603.604C263.428 612.122 265.149 621.301 263.155 631.292C261.365 640.262 256.338 647.245 248.716 652.219C239.137 658.471 226.764 661.264 215.487 658.838C206.251 656.852 197.51 651.119 192.426 643.11C182.789 627.93 185.298 604.843 188.946 588.234C195.131 560.071 207.981 530.561 233.071 514.557C241.201 514.531 250.158 512.828 257.004 508.215C261.748 505.018 264.374 500.901 265.538 495.347Z"/>
	<path fill="#FCF9FE" d="M395.835 529.678C397.159 529.484 398.005 529.3 399.306 529.734C399.579 533.362 397.969 538.309 397.324 541.948C394.777 556.323 391.821 570.478 388.969 584.786C386.278 598.29 384.376 612.303 380.844 625.591C357.394 634.214 333.235 640.915 309.683 649.281C308.607 649.551 307.603 649.682 306.497 649.771L306.044 649.227C306.123 636.444 309.153 622.757 311.028 610.087L321.064 543.057C332.682 541.668 344.06 538.912 355.515 536.6C368.842 533.911 382.381 531.647 395.835 529.678Z"/>
	<path fill="#010000" d="M385.57 553.202C386.763 553.079 388.052 552.894 389.249 552.986Q389.715 553.024 390.165 553.154Q390.615 553.283 391.03 553.498Q391.446 553.713 391.811 554.006Q392.176 554.298 392.477 554.657C391.71 555.547 391.487 555.591 390.374 555.853C385.13 557.088 379.052 557.149 373.665 557.818Q359.053 559.773 344.468 561.915C341.132 562.456 337.845 562.895 334.474 563.139C348.704 557.471 370.141 554.771 385.57 553.202Z"/>
	<path fill="#010000" d="M387.472 572.213L388.202 572.576C388.49 573.83 388.569 574.03 388.148 575.228C386.95 576.04 385.844 576.261 384.443 576.491C380.801 577.09 376.988 577.087 373.305 577.486C360.902 578.832 348.608 580.101 336.4 582.759L335.849 582.586L335.941 581.809C344.379 577.553 377.004 573.285 387.472 572.213Z"/>
	<path fill="#010000" d="M370.272 593.688C371.535 593.552 372.872 593.379 374.139 593.578C375.215 593.747 377.006 594.343 377.649 595.229C376.087 596.89 348.845 600.235 345.118 600.856C342.101 601.275 339.061 601.468 336.024 601.703C346.417 597.196 359.014 595.018 370.272 593.688Z"/>
	<path fill="#010000" d="M300.409 451.639C301.459 452.191 301.719 452.243 302.287 453.26C302.362 455.229 302.083 456.558 300.723 458.058C299.228 459.708 296.75 460.829 294.522 460.846C291.886 460.867 290.175 459.515 288.351 457.785C288.075 457.183 287.665 456.43 287.551 455.759C287.352 454.582 287.615 453.817 288.345 452.942C290.949 453.14 292.785 456.239 295.449 456.975C297.535 455.986 297.981 453.559 299.743 452.146C299.96 451.971 300.187 451.808 300.409 451.639Z"/>
	<path fill="#010000" d="M280.922 427.174C282.106 427.364 283.293 427.507 284.208 428.359C285.075 429.166 285.561 430.327 285.65 431.493C285.843 434.041 284.862 435.928 283.322 437.861C282.828 437.879 281.777 437.998 281.265 437.837C280.001 437.44 279.538 436.763 279.085 435.562C278.19 433.193 279.839 429.262 280.922 427.174Z"/>
	<path fill="#010000" d="M303.388 428.73C304.326 428.885 305.141 429.124 306.046 429.407C307.247 430.503 307.952 431.584 308.016 433.241C308.112 435.712 307.226 437.541 305.58 439.299C304.696 439.081 303.882 438.777 303.024 438.471C301.851 437.305 301.07 436.178 300.992 434.461C300.882 432.065 301.78 430.406 303.388 428.73Z"/>
	<path fill="#FCF9FE" d="M299.434 619.029C300.381 627.912 294.062 639.682 296.54 648.189C297.643 651.977 300.362 653.635 303.674 655.402C309.631 653.958 315.548 651.384 321.398 649.484L364.958 635.194C365.463 638.522 365.784 641.791 365.976 645.152C353.898 654.57 323.764 662.553 308.3 667.524Q293.156 672.475 278.099 677.684C263.462 682.374 243.831 689.981 228.773 690.859C223.162 691.186 217.497 690.202 213.278 686.208C206.439 679.733 205.666 667.778 205.399 658.965C207.968 660.2 210.501 661.423 213.263 662.167C224.762 665.261 238.482 663.014 248.736 657.096C259.2 651.058 264.779 642.71 267.854 631.212C278.687 628.324 289.828 624.928 299.434 619.029Z"/>
	<path fill="#FCF9FE" d="M288.259 602.2C290.454 602.067 292.599 602.399 294.774 602.659C297.903 605.366 299.341 607.683 300.827 611.441C294.197 617.976 285.247 621.4 276.67 624.594Q272.453 625.736 268.206 626.765C268.197 619.421 267.403 613.909 265.024 606.879C272.386 604.141 280.438 602.686 288.259 602.2Z"/>
	<path fill="#FCF9FE" d="M393.221 583.867C393.401 584.053 393.606 584.217 393.761 584.425C398.296 590.506 400.113 601.572 398.499 608.938C397.305 614.388 394.759 618.076 390.095 621.046L385.636 622.478C388.508 609.659 390.456 596.698 393.221 583.867Z"/>
	<path fill="#FCF9FE" d="M397.82 561.82C401.911 565.273 407.775 577.577 408.206 583.073C408.583 587.891 406.842 590.703 403.763 594.189C403.067 594.832 403.116 594.914 402.124 595.124C399.801 589.254 398.299 583.186 394.506 578.023C395.546 572.608 396.832 567.251 397.82 561.82Z"/>
	<path fill="#010000" d="M753.526 386.611C757.971 386.128 762.98 386.32 766.854 388.782C772.01 392.057 773.278 397.557 774.47 403.115C778.358 399.869 782.991 397.307 788.094 396.698C792.865 396.129 797.877 397.442 801.597 400.525Q802.196 401.018 802.742 401.57Q803.288 402.122 803.774 402.727Q804.261 403.332 804.682 403.983Q805.104 404.635 805.457 405.326Q805.81 406.017 806.091 406.741Q806.371 407.465 806.576 408.213Q806.781 408.962 806.908 409.728Q807.035 410.493 807.083 411.268C807.48 418.683 802.832 424.165 798.236 429.352C803.045 432.037 809.761 434.749 812.47 439.869C815.521 445.636 812.549 459.899 810.438 465.915C808.596 471.162 803.594 472.984 798.958 475.125C799.768 479.375 800.317 483.242 798.88 487.427C797.623 491.086 794.933 494.268 791.405 495.91C786.203 498.331 780.964 496.897 775.891 495.019C772.635 499.311 768.828 502.593 764.772 506.079C765.345 510.259 765.965 514.423 766.14 518.644C770.169 520.419 774.254 521.742 778.162 523.846C793.603 532.161 803.406 546.664 813.462 560.494C825.411 552.189 838.167 544.018 853.261 543.832C861.806 543.726 870.294 546.72 876.437 552.751C886.915 563.037 887.991 580.072 887.968 593.873C887.907 631.588 868.917 695.063 850.068 727.474C845.036 736.127 838.47 744.015 831.343 751.012C808.661 773.282 768.182 785.529 736.468 785.214C736.36 796.268 736.996 807.316 737.438 818.358C737.732 825.698 737.743 833.085 738.178 840.412C738.553 846.739 740.036 853.008 740.173 859.346C740.216 861.321 740.439 866.073 739.253 867.631C733.715 874.908 695.378 880.905 685.21 882.704C679.089 883.787 669.774 886.16 664.385 882.122C662.497 880.708 661.36 878.694 661.061 876.36C659.803 866.558 683.59 851.589 689.99 843.795C687.623 835.135 684.761 826.628 682.529 817.92C679.474 805.999 677.117 793.918 674.064 782.008C669.998 780.293 665.945 778.482 662.369 775.87Q663.795 797.972 666.059 820.004C666.806 827.944 667.091 835.72 668.5 843.593C668.769 848.905 668.456 853.054 664.929 857.392C653.345 871.634 618.322 877.04 600.366 878.857C595.006 879.4 582.815 881.17 578.663 877.093C577.398 875.851 576.931 874.113 577.11 872.389C577.987 863.936 604.007 846.647 611.529 840.95C610.063 820.548 607.543 800.309 605.593 779.958Q602.616 748.816 600.755 717.588C599.88 704.909 597.442 682.175 599.439 670.12C600.198 665.533 602.465 660.433 606.398 657.713C615.249 651.593 631.446 654.759 641.256 656.536C644.73 651.849 647.096 645.863 650.071 640.792C644.163 639.462 638.729 637.996 633.571 634.706C609.915 619.62 581.543 572.008 564.695 548.446C561.678 544.225 557.128 537.517 558.236 532.11C559.002 528.375 562.046 526.193 564.978 524.152C561.686 520.695 557.979 517.639 554.626 514.236C552.301 511.876 549.9 509.19 549.925 505.699C550.39 505.054 550.405 504.724 551.25 504.548C557.965 503.149 572.649 514.094 578.295 517.689C582.088 520.105 587.148 522.579 590.282 525.769C592.642 528.171 594.425 531.181 596.556 533.796C600.807 539.013 605.265 544.082 609.587 549.243C616.128 557.053 622.215 565.454 630.777 571.218C634.665 573.835 639.073 575.704 643.853 575.29C660.169 573.877 678.651 548.411 690.761 537.791C701.323 528.528 712.073 521.567 725.947 518.89C726.864 515.042 727.287 511.039 727.843 507.122C717.109 498.59 710.544 490.469 706.545 477.193C705.609 474.086 705.447 470.249 704.147 467.328C703.395 465.639 698.875 464.797 697.08 464.045C693.127 462.389 689.425 457.541 687.939 453.601C686.316 449.298 686.397 444.196 688.352 440.009C690.787 434.795 694.746 432.687 699.85 430.774C698.391 428.122 697.947 425.208 697.905 422.214C697.816 415.903 700.116 409.813 704.603 405.332C708.022 401.917 712.448 399.836 717.33 399.962C723.214 400.115 727.563 402.877 731.49 406.971C732.303 403.86 733.292 401.003 735.012 398.255C739.355 391.314 745.841 388.326 753.526 386.611ZM652.054 637.223C659.214 626.834 685.168 575.096 689.753 571.589C691.027 571.368 690.99 571.326 692.084 572.003C692.242 573.261 691.871 574.056 691.328 575.158C685.479 587.028 678.084 598.576 671.522 610.097C664.224 622.913 657.521 635.951 649.891 648.587C679.536 654.966 708.376 664.785 737.9 671.524C753.65 675.74 769.649 679.601 785.022 685.071Q788.222 679.695 791.514 674.374C785.498 671.383 780.724 668.778 776.429 663.516C764.416 663.577 749.502 661.891 740.445 653.002C737.517 650.128 735.391 646.286 735.537 642.08C735.635 639.245 737.033 636.915 739.088 635.039C751.109 624.063 777.959 628.052 783.141 622.208C785.83 619.175 786.436 612.911 786.716 608.972C787.069 604.014 784.643 581.632 786.167 579.529L787.235 579.577C790.702 583.857 790.802 605.731 790.186 611.531C789.64 616.668 788.253 623.237 783.932 626.523C782.747 627.424 781.419 628.169 780.134 628.917C778.456 638.058 776.074 654.543 781.655 662.621C785.383 668.017 792.571 670.324 798.791 671.325C808.776 672.933 820.071 670.174 828.24 664.231C836.089 658.522 840.689 649.203 842.044 639.732C845.557 615.189 827.744 589.068 814.478 569.703C809.992 563.154 805.564 556.503 800.752 550.188C791.597 538.175 780.883 527.437 766.164 522.772C765.446 527.606 763.387 531.156 759.431 534.116C753.991 538.185 746.568 539.244 739.967 538.16C735.671 537.454 730.489 535.669 727.964 531.893C726.02 528.986 725.246 525.855 724.805 522.446L724.386 522.083C711.892 525.564 700.943 533.553 691.514 542.237C676.569 556 654.472 588.857 631.087 575.651C620.64 569.752 604.727 550.53 597.852 540.603C590.041 545.589 582.176 550.383 573.602 553.972C587.886 576.321 621.297 630.455 646.989 636.207Q649.513 636.757 652.054 637.223ZM775.653 659.528C774.595 654.63 774.428 650.008 774.711 645.004C774.862 642.346 776.555 630.658 775.72 629.135L774.447 629.212C764.675 630.117 747.575 630.572 740.672 638.673C739.562 639.975 738.844 641.597 739.022 643.334C739.394 646.957 743.203 650.424 745.984 652.504Q746.979 653.252 748.012 653.947C757.459 658.282 765.305 659.678 775.653 659.528ZM570.815 524.576C567.238 526.509 563.649 528.132 562.417 532.375C561.429 535.779 562.924 539.421 564.697 542.288C566.609 545.382 568.885 548.282 571.127 551.142Q576.208 548.59 581.207 545.881L595.042 538.116C592.714 534.519 590.567 531.324 587.346 528.454C583.224 524.781 559.591 509.316 554.738 508.482C554.402 508.424 554.06 508.41 553.72 508.374C558.927 514.128 566.09 518.099 570.662 524.379C570.711 524.446 570.764 524.51 570.815 524.576ZM660.253 748.778C660.901 756.263 661.214 763.845 662.166 771.291C665.829 773.286 669.515 775.587 673.311 777.295C671.121 767.792 669.605 760.543 663.443 752.718C662.456 751.464 661.457 749.787 660.253 748.778ZM762.089 515.111C762.012 511.266 761.854 507.401 761.995 503.558C771.688 496.392 775.699 490.049 779.562 478.715L784.665 479.83C789.458 478.134 793.348 476.896 795.8 472.037C797.36 468.947 797.796 465.085 796.652 461.787C795.839 459.444 793.848 457.022 791.51 456.079C790.03 455.482 788.816 455.688 787.436 456.405C784.121 458.128 783.286 462.191 779.028 461.943C777.048 460.763 776.106 459.497 775.506 457.244C774.536 453.604 774.999 449.211 775.308 445.487C769.491 441.722 764.736 438.93 761.458 432.49C752.079 436.858 746.554 437.668 736.753 434.038C735.245 433.48 733.596 432.569 732.034 432.277C728.789 436.725 724.925 440.005 719.333 440.961C716.388 441.464 714.094 441.104 711.23 440.39C711.101 440.358 710.97 440.33 710.84 440.3C707.084 455.529 707.339 475.823 715.569 489.665Q716.288 490.847 717.085 491.978Q717.882 493.109 718.754 494.184Q719.626 495.258 720.568 496.272Q721.511 497.285 722.519 498.232Q723.528 499.179 724.599 500.056Q725.669 500.933 726.796 501.736Q727.923 502.538 729.102 503.263Q730.281 503.988 731.506 504.631C731.539 506.709 731.614 508.842 731.303 510.901C730.363 517.107 726.79 525.599 732.242 530.629C736.038 534.131 741.79 535.065 746.769 534.698C751.578 534.345 756.359 532.62 759.433 528.746C762.752 524.563 762.597 520.144 762.089 515.111ZM667.154 751.238L667.836 751.117C667.922 743.03 665.849 734.35 664.873 726.311C663.753 717.076 663.397 707.519 663.202 698.216C663.108 693.755 665.165 679.002 663.998 676.083L663.185 675.791C660.001 678.209 659.28 681.574 658.785 685.401C656.974 699.397 660.366 738.012 666.803 750.546L667.154 751.238ZM737.117 781.45C774.808 777.698 811.934 768.868 837.107 738.015C863.313 705.897 887.566 621.787 883.213 580.41C882.169 570.485 879.657 560.456 871.513 553.896C864.96 548.617 856.477 547.294 848.319 548.201C835.853 550.324 825.881 557.104 815.758 564.274C830.657 586.887 851.164 614.925 845.181 643.511C842.978 654.039 837.361 663.096 828.219 668.948C817.976 675.504 807.549 675.841 795.816 675.379C781.309 702.488 757.788 723.836 732.81 741.133Q734.08 753.242 735.011 765.381C735.355 770.309 735.031 776.534 736.218 781.256L737.117 781.45Z"/>
	<path fill="#010000" d="M743.345 475.627C744.064 475.822 744.457 476.044 745.082 476.427C745.239 476.872 745.407 477.25 745.413 477.742C745.44 480.038 743.244 482.55 741.601 483.924C739.734 485.486 737.254 486.607 734.777 486.212C731.936 485.759 730.445 483.937 728.829 481.736C728.694 481.261 728.549 480.789 728.435 480.309C728.067 478.759 728.365 478.297 729.15 477.005C730.846 477.05 732.406 480.063 733.764 481.232C734.759 482.089 736.097 482.559 737.407 482.263C740.339 481.602 741.996 477.996 743.345 475.627Z"/>
	<path fill="#010000" d="M718.969 446.34C720.725 446.418 722.001 446.587 723.336 447.898C724.452 448.994 725.006 450.4 724.825 451.984C724.583 454.089 723.414 455.143 721.845 456.345C720.159 456.376 718.567 456.394 717.295 455.062C716.319 454.04 715.981 452.735 716.1 451.361C716.303 449.032 717.247 447.828 718.969 446.34Z"/>
	<path fill="#010000" d="M751.75 448.892C753.535 448.818 755.16 448.756 756.546 450.114C757.495 451.045 757.988 452.215 757.893 453.549C757.755 455.499 756.926 456.649 755.534 457.916C754.265 458.025 752.914 458.05 751.812 457.313C750.642 456.53 750.068 455.427 749.849 454.068C749.514 451.996 750.5 450.415 751.75 448.892Z"/>
	<path fill="#010000" d="M731.371 458.186C732.605 458.503 732.803 458.329 733.625 459.378C733.876 463.208 730.726 467.436 728.89 470.69C727.751 470.582 727.713 470.566 726.865 469.797C726.237 466.742 730.033 461.119 731.371 458.186Z"/>
	<path fill="#FCF9FE" d="M663.268 836.449L663.889 837.066C664.446 839.922 664.383 842.744 664.374 845.64C663.585 846.768 662.712 847.734 661.726 848.693C643.944 865.99 607.625 868.387 583.751 868.004C590.082 861.302 598.283 855.598 605.68 850.109C608.888 847.728 612.556 845.445 615.278 842.53C632.216 846.126 648.148 845.531 663.268 836.449Z"/>
	<path fill="#010000" d="M611.363 849.603C613.856 849.437 616.664 848.936 618.727 850.632C619.049 851.922 618.882 852.075 618.377 853.33C615.896 853.568 613.775 853.598 611.621 852.21C610.93 850.92 610.964 851.016 611.363 849.603Z"/>
	<path fill="#FCF9FE" d="M733.893 843.514C736.299 845.799 735.921 851.969 736.017 855.092C731.333 857.414 726.719 859.515 721.766 861.226C711.813 864.664 674.352 875.413 665.273 872.666C671.864 865.059 689.182 852.129 692.972 844.896C694.515 845.648 696.062 846.316 697.691 846.866C709.139 850.736 723.276 848.915 733.893 843.514Z"/>
	<path fill="#010000" d="M690.864 852.641C693.569 852.493 696.873 851.846 699.16 853.481C699.265 854.947 698.898 855.18 698.114 856.381C696.348 856.526 694.419 856.522 692.694 856.068C691.39 855.725 690.921 855.259 690.296 854.122L690.864 852.641Z"/>
	<path fill="#010000" d="M347.186 236.603C354.199 236.079 361.428 237.011 368.428 237.48C374.283 237.872 380.103 237.926 385.968 237.943C411.175 238.017 436.568 236.236 461.741 237.201C464.715 237.315 467.593 237.553 470.24 239.011C471.552 240.722 472.101 242.534 472.534 244.635C474.651 254.903 473.321 268.011 473.518 278.586C473.707 288.674 474.925 298.937 473.799 309C473.614 310.657 473.205 312.77 472.129 314.109C470.645 315.955 469.231 316.192 467.01 316.539C442.629 316.853 418.257 316.472 393.878 316.704C384.17 316.796 352.776 319.485 345.638 317.159C344.656 316.839 344.332 316.564 343.897 315.623C342.678 312.989 342.14 309.693 341.841 306.814C340.994 298.665 339.135 245.992 340.838 241.684C341.965 238.834 344.547 237.742 347.186 236.603Z"/>
	<path fill="#010000" d="M546.548 131.739C560.392 131.005 574.792 132.973 588.689 133.407Q599.846 133.747 611.007 133.882C615.946 133.902 621.084 133.519 625.996 134.017C628.285 134.248 629.985 134.746 631.908 135.997C632.728 137.103 633.026 138.094 633.253 139.429C634.284 145.5 632.757 152.707 632.255 158.854C631.803 164.391 631.584 169.923 631.378 175.475C630.761 192.126 631.072 208.798 631.126 225.457C631.135 228.456 631.781 233.878 629.938 236.365C628.473 237.396 626.998 237.298 625.281 237.367C615.186 236.618 604.751 237.025 594.63 237.234C585.882 237.414 577.128 237.388 568.382 237.643C559.761 237.893 551.07 238.49 542.46 237.797C540.779 236.773 538.777 235.563 538.239 233.513C536.514 226.952 538.786 193.258 538.959 184.103C539.228 169.845 538.845 155.57 539.115 141.322C539.147 139.62 539.045 137.069 539.62 135.473C539.698 135.256 539.819 135.055 539.944 134.861C541.459 132.517 544.014 132.203 546.548 131.739ZM624.625 233.966C626.047 233.892 626.49 234.082 627.568 233.1C628.778 226.475 627.565 216.961 627.433 210.052Q627.276 195.08 627.61 180.112C627.94 166.406 630.303 152.356 629.936 138.714L629.638 138.823C629.503 138.73 629.377 138.623 629.232 138.546C627.178 137.45 623.292 137.437 620.966 137.319C608.371 136.681 595.659 137.187 583.029 136.705C571.492 136.265 559.53 134.544 548.024 135.166C546.224 135.486 544.853 135.642 543.411 136.821C542.659 137.991 542.431 138.776 542.388 140.17C542.015 152.485 542.699 164.909 542.412 177.256L541.548 207.234C541.274 215.076 540.177 223.821 541.696 231.535C541.824 232.187 542.04 232.758 542.279 233.374C544.103 234.251 545.774 234.525 547.791 234.614C555.872 234.97 564.085 234.207 572.18 234.114L624.625 233.966Z"/>
	<path fill="#010000" d="M697.611 232.19C706.385 231.704 715.272 232.257 724.054 232.362Q756.881 232.564 789.642 234.65C799.539 235.218 809.998 234.761 819.786 235.886C822.402 236.187 824.944 236.711 827.3 237.921C828.011 239.343 828.115 240.767 828.155 242.334C828.43 253.043 827.217 283.743 824.664 293.182C824.297 294.54 823.832 295.396 822.869 296.407C818.512 297.214 813.635 296.731 809.198 296.65C799.126 296.467 789.069 296.017 779.001 295.719L725.539 293.822C716.711 293.492 706.704 294.084 698.094 292.236C696.23 291.836 695.011 291.244 694.043 289.518C693.005 287.669 692.655 285.394 692.447 283.316C691.77 276.537 692.019 241.29 693.838 235.879C694.516 233.864 695.74 233.026 697.611 232.19ZM820.847 293.117C823.802 281.128 824.814 253.53 824.476 240.775C817.072 238.669 808.313 239.616 800.624 239.175C775.862 237.755 751.296 236.378 726.49 236.044C717.232 235.919 707.663 235.32 698.438 236.202C696.9 237.516 696.723 238.777 696.545 240.686C695.798 248.692 694.797 280.442 696.808 287.006C698.881 289.225 705.429 289.438 708.376 289.539Q746.391 291.187 784.43 292.115C796.241 292.501 809.126 293.855 820.847 293.117Z"/>
	<path fill="#010000" d="M565.444 314.527C580.113 315.716 641.676 313.074 650.229 316.376C650.877 317.425 650.839 318.959 650.851 320.165C650.974 332.728 649.986 345.505 649.566 358.078C649.164 370.091 649.548 386.331 647.312 397.821C646.766 400.624 646.067 402.593 644.072 404.656C639.263 406.467 568.236 406.132 561.576 404.541C560.88 404.375 560.752 404.125 560.421 403.46C557.75 398.091 558.451 326.795 560.806 319.41C561.667 316.71 563.01 315.752 565.444 314.527ZM641.387 401.724C643.715 399.978 643.9 395.667 644.285 392.9C646.107 379.82 645.757 365.913 646.248 352.671C646.66 341.553 647.88 329.733 647.24 318.661C635.263 318.297 623.266 318.425 611.284 318.32C596.703 318.192 582.128 317.851 567.544 318.183C566.072 318.656 565.54 318.607 564.811 320.071C563.705 322.294 563.517 325.724 563.343 328.217C562.114 345.871 562.7 363.931 562.847 381.625C562.895 387.432 562.089 394.353 563.113 399.991C565.485 401.445 568.836 401.713 571.59 401.898C585.036 402.803 599.027 402.054 612.538 402.057C621.706 402.058 632.464 403.059 641.387 401.724Z"/>
	<path fill="#010000" d="M457.734 405.783C463.429 405.414 491.285 403.941 494.841 406.56C495.984 407.402 496.62 409.561 496.972 410.847C498.88 417.822 499.22 457.638 498.231 465.733C497.938 468.13 497.484 470.261 496.298 472.387C493.175 475.01 429.871 475.526 421.125 475.523C413.566 475.63 386.149 477.503 381.614 473.011C380.257 471.667 380.066 468.979 379.994 467.196C379.699 459.783 380.378 452.124 380.376 444.667C380.374 434.324 379.507 423.083 380.612 412.822C380.811 410.976 381.141 408.748 382.528 407.387C383.677 406.261 385.629 406.17 387.162 406.05C395.201 405.426 403.671 405.995 411.754 405.998Q434.745 406.024 457.734 405.783ZM384.881 409.882C382.766 423.032 384.02 437.549 384.029 450.862C384.034 456.977 383.123 464.099 384.323 470.07L384.64 469.504L384.546 470.392C390.95 473.527 404.425 472.07 411.875 472.011Q440.849 472.236 469.792 470.879C477.887 470.553 486.348 470.694 494.378 469.686C495.548 459.434 496.135 418.135 493.128 409.895C493.101 409.821 493.08 409.745 493.056 409.67C484.413 408.35 475.219 409.025 466.503 409.212C447.68 410.212 428.209 409.727 409.308 409.698C401.222 409.686 392.938 409.219 384.881 409.882Z"/>
	<path fill="#010000" d="M463.658 134.292C467.375 134.008 470.723 133.844 474.393 134.747L474.418 136.248L474.574 134.828L474.667 136.123C470.765 138.177 445.95 139.336 439.733 140.049C382.128 146.653 310.252 159.467 266.04 200.2C244.301 220.228 231.158 244.882 230.003 274.619C230.101 277.786 229.806 279.294 228.188 282.035L227.713 281.978C226.891 280.406 226.764 278.257 226.681 276.488C225.478 250.706 236.969 225.659 254.019 206.924C286.996 170.686 336.685 154.664 383.19 144.85Q403.077 140.684 423.223 138.041Q443.369 135.397 463.658 134.292Z"/>
	<path fill="#010000" d="M879.499 247.807C880.197 248.253 880.989 248.491 881.265 249.321C882.835 254.038 866.441 326.121 863.894 336.383Q856.043 366.764 846.894 396.78C844.981 403.103 843.499 411.307 840.203 416.921L838.685 416.311C837.939 415.387 837.882 415.27 838.033 414.005C838.672 408.642 841.067 402.888 842.632 397.676Q847.693 381.093 852.418 364.41Q863.423 324.712 871.519 284.32Q873.866 272.878 875.743 261.35C876.377 257.683 876.713 253.421 877.871 249.903C878.19 248.936 878.743 248.444 879.499 247.807Z"/>
	<path fill="#010000" d="M227.53 319.247L228.681 319.769C230.73 322.295 231.128 328.698 231.493 331.893C231.693 333.638 231.599 334.247 230.493 335.619L229.121 334.898C228.042 333.312 227.723 331.36 227.378 329.497C226.834 326.562 225.793 321.799 227.53 319.247Z"/>
	<path fill="#010000" d="M883.117 201.874Q883.327 201.73 883.554 201.615Q883.782 201.501 884.023 201.417Q884.263 201.334 884.513 201.283Q884.762 201.232 885.016 201.215Q885.27 201.198 885.525 201.215Q885.779 201.231 886.028 201.282Q886.278 201.332 886.519 201.415Q886.759 201.499 886.987 201.613Q887.214 201.727 887.425 201.871Q887.635 202.015 887.825 202.185Q888.014 202.356 888.179 202.55Q888.344 202.744 888.482 202.958Q888.62 203.172 888.728 203.403Q888.836 203.634 888.912 203.877Q888.988 204.119 889.032 204.37Q889.075 204.621 889.085 204.876Q889.095 205.13 889.07 205.384Q889.046 205.638 888.989 205.886Q888.931 206.134 888.841 206.372Q888.751 206.61 888.63 206.834Q888.509 207.058 888.359 207.264Q888.209 207.47 888.033 207.655Q887.858 207.839 887.659 207.998Q887.46 208.158 887.242 208.289Q887.084 208.384 886.918 208.463Q886.752 208.543 886.58 208.606Q886.407 208.669 886.229 208.715Q886.051 208.761 885.869 208.79Q885.687 208.818 885.504 208.83Q885.32 208.841 885.136 208.834Q884.953 208.828 884.77 208.803Q884.588 208.779 884.409 208.737Q884.23 208.696 884.055 208.637Q883.881 208.578 883.713 208.503Q883.545 208.428 883.385 208.337Q883.225 208.246 883.075 208.14Q882.925 208.034 882.785 207.914Q882.646 207.794 882.519 207.661Q882.391 207.529 882.277 207.384Q882.163 207.24 882.064 207.085Q881.964 206.93 881.88 206.767Q881.796 206.603 881.728 206.432Q881.66 206.261 881.609 206.085Q881.558 205.908 881.524 205.727Q881.49 205.546 881.473 205.363Q881.457 205.18 881.458 204.996Q881.459 204.812 881.478 204.629Q881.497 204.446 881.533 204.266Q881.57 204.086 881.623 203.91Q881.677 203.734 881.747 203.564Q881.818 203.394 881.904 203.231Q881.99 203.069 882.092 202.915Q882.193 202.762 882.309 202.619Q882.425 202.476 882.554 202.345Q882.683 202.214 882.824 202.096Q882.965 201.978 883.117 201.874Z"/>
</svg>

