<?xml version="1.0" standalone="no"?><!DOCTYPE svg PUBLIC "-//W3C//DTD SVG 1.1//EN" "http://www.w3.org/Graphics/SVG/1.1/DTD/svg11.dtd"><svg t="1740279489894" class="icon" viewBox="0 0 1024 1024" version="1.1" xmlns="http://www.w3.org/2000/svg" p-id="1540" xmlns:xlink="http://www.w3.org/1999/xlink" width="800" height="800"><path d="M81 48m139 0l650 0q139 0 139 139l0 650q0 139-139 139l-650 0q-139 0-139-139l0-650q0-139 139-139Z" fill="#FFDA44" p-id="1541"></path><path d="M869 469h-94v33h94v-33z m47.995-23.5c0.003 0.166 0.005 0.333 0.005 0.5v161c0 13.255-10.745 24-24 24-2.39 0-4.699-0.35-6.878-1H607c-13.255 0-24-10.745-24-24V445c0-13.255 10.745-24 24-24h130.729c3.801-2.527 8.364-4 13.271-4s9.47 1.473 13.271 4H893c13.255 0 24 10.745 24 24 0 0.167-0.002 0.334-0.005 0.5zM869 582v-32h-94v32h94zM727 469h-96v33h96v-33z m0 113v-32h-96v32h96z m141-205H630v3c0 13.255-10.745 24-24 24s-24-10.745-24-24v-27c0-13.255 10.745-24 24-24h286c13.255 0 24 10.745 24 24v27c0 13.255-10.745 24-24 24s-24-10.745-24-24v-3z m-384-30c13.255 0 24 10.745 24 24v300c0 13.255-10.745 24-24 24s-24-10.745-24-24V508h-95v163c0 13.255-10.745 24-24 24s-24-10.745-24-24V508h-96v163c0 13.255-10.745 24-24 24s-24-10.745-24-24V371c0-13.255 10.745-24 24-24s24 10.745 24 24v89h96v-8c0-13.255 10.745-24 24-24s24 10.745 24 24v8h95v-65H333c-13.255 0-24-10.745-24-24s10.745-24 24-24h151zM269 565c13.255 0 24 10.745 24 24v82c0 13.255-10.745 24-24 24s-24-10.745-24-24v-82c0-13.255 10.745-24 24-24z m-4-236c13.255 0 24 10.745 24 24v27c0 13.255-10.745 24-24 24s-24-10.745-24-24v-27c0-13.255 10.745-24 24-24z m341 318c13.255 0 24 10.745 24 24s-10.745 24-24 24-24-10.745-24-24 10.745-24 24-24z m97 0c13.255 0 24 10.745 24 24s-10.745 24-24 24-24-10.745-24-24 10.745-24 24-24z m95 0c13.255 0 24 10.745 24 24s-10.745 24-24 24-24-10.745-24-24 10.745-24 24-24z m95 0c13.255 0 24 10.745 24 24s-10.745 24-24 24-24-10.745-24-24 10.745-24 24-24z m-481-82c13.255 0 24 10.745 24 24v82c0 13.255-10.745 24-24 24s-24-10.745-24-24v-82c0-13.255 10.745-24 24-24z" fill="#000000" p-id="1542"></path></svg>